<?xml version="1.0" standalone="no"?>
<!DOCTYPE svg PUBLIC "-//W3C//DTD SVG 20010904//EN"
 "http://www.w3.org/TR/2001/REC-SVG-20010904/DTD/svg10.dtd">
<svg version="1.0" xmlns="http://www.w3.org/2000/svg"
 width="572.000000pt" height="592.000000pt" viewBox="0 0 572.000000 592.000000"
 preserveAspectRatio="xMidYMid meet">

<g transform="translate(0.000000,592.000000) scale(0.100000,-0.100000)"
fill="#000000" stroke="none">
<path d="M2561 5363 l-184 -3 8 -178 c3 -97 10 -181 14 -185 4 -4 118 -3 252
4 289 13 474 4 692 -37 816 -149 1476 -753 1711 -1565 14 -48 38 -151 53 -230
25 -133 27 -163 28 -389 0 -216 -3 -259 -23 -360 -46 -230 -104 -402 -211
-626 -162 -336 -417 -655 -651 -813 -52 -35 -97 -66 -99 -68 -9 -7 156 -313
169 -313 11 0 72 35 135 78 93 64 183 142 282 245 398 413 672 981 749 1547
16 125 18 460 3 598 -41 386 -176 770 -390 1109 -348 553 -902 954 -1538 1113
-266 66 -504 83 -1000 73z"/>
<path d="M1740 5107 c-76 -27 -265 -122 -348 -174 -397 -251 -764 -747 -935
-1263 -94 -281 -127 -488 -127 -785 0 -644 215 -1264 607 -1750 109 -135 336
-354 463 -447 425 -309 908 -477 1415 -490 l100 -3 0 180 0 180 -125 7 c-354
19 -650 106 -962 281 -514 289 -906 821 -1062 1442 -58 229 -70 332 -70 595
-1 229 1 254 27 380 107 520 394 1008 762 1293 l90 69 5 -1103 5 -1104 878 -3
877 -2 0 150 0 150 -727 2 -728 3 -2 1035 c-2 569 -3 1113 -3 1208 l0 172 -37
0 c-21 0 -67 -11 -103 -23z"/>
<path d="M2178 3603 c-49 -2 -88 -8 -88 -13 0 -5 25 -72 55 -149 30 -77 55
-145 55 -150 0 -5 6 -13 13 -18 6 -4 233 -10 502 -13 458 -6 495 -7 575 -27
257 -65 493 -229 577 -400 25 -51 28 -69 28 -148 -1 -77 -5 -99 -30 -155 -77
-172 -247 -362 -410 -457 -144 -84 -268 -113 -518 -120 -132 -4 -187 -9 -184
-17 3 -6 51 -117 107 -246 102 -236 142 -328 185 -430 12 -30 69 -161 125
-290 56 -129 142 -327 190 -440 49 -113 100 -231 114 -263 l26 -57 185 0 c102
0 185 2 185 4 0 3 -11 31 -24 63 -13 32 -37 92 -54 133 -16 41 -96 228 -177
415 -348 804 -346 799 -327 807 9 3 51 16 92 28 107 32 263 110 356 178 43 33
124 106 180 163 156 162 243 297 300 466 34 103 43 267 20 366 -82 347 -436
642 -899 749 -87 20 -121 21 -582 23 -269 1 -529 0 -577 -2z"/>
</g>
</svg>
